<?xml version="1.0" standalone="no"?>
<!DOCTYPE svg PUBLIC "-//W3C//DTD SVG 20010904//EN"
 "http://www.w3.org/TR/2001/REC-SVG-20010904/DTD/svg10.dtd">
<svg version="1.0" xmlns="http://www.w3.org/2000/svg"
 width="280.000000pt" height="198.000000pt" viewBox="0 0 280.000000 198.000000"
 preserveAspectRatio="xMidYMid meet">

<g transform="translate(0.000000,198.000000) scale(0.100000,-0.100000)"
fill="#000000" stroke="none">
<path d="M575 1136 c-85 -38 -117 -132 -75 -224 43 -95 202 -111 268 -27 32
40 28 55 -12 55 -25 0 -38 -6 -50 -25 -13 -20 -25 -25 -61 -25 -58 0 -85 32
-85 100 0 67 27 100 84 100 30 0 48 -6 61 -20 21 -23 85 -28 85 -7 0 18 -49
64 -83 76 -38 15 -95 13 -132 -3z"/>
<path d="M1401 1138 c-23 -9 -38 -22 -44 -41 -12 -37 -7 -40 36 -22 51 21 100
19 122 -5 30 -33 13 -50 -50 -50 -72 0 -110 -20 -125 -65 -22 -66 26 -125 100
-125 39 0 80 29 80 55 0 25 -14 33 -25 15 -8 -12 -55 -13 -73 -1 -21 13 -10
54 18 68 14 7 42 13 63 13 l37 0 0 -70 0 -70 33 0 33 0 -3 98 c-5 132 -10 155
-37 181 -29 27 -115 37 -165 19z"/>
<path d="M270 990 l0 -150 105 0 105 0 0 35 0 35 -65 0 -65 0 0 115 0 115 -40
0 -40 0 0 -150z"/>
<path d="M872 1128 c3 -7 24 -75 48 -150 l43 -138 43 0 43 0 16 55 c8 30 22
81 31 113 l17 57 30 -112 30 -113 49 0 c26 0 48 2 48 5 0 3 18 67 40 142 22
76 40 141 40 146 0 5 -17 7 -37 5 l-36 -3 -27 -98 c-15 -54 -29 -100 -32 -102
-2 -2 -17 43 -33 101 l-28 105 -46 -3 -45 -3 -25 -97 c-14 -54 -28 -98 -32
-98 -5 0 -17 37 -49 158 -10 41 -12 42 -51 42 -29 0 -40 -4 -37 -12z"/>
<path d="M1640 991 l0 -151 40 0 41 0 -3 148 -3 147 -37 3 -38 3 0 -150z"/>
<path d="M1750 990 l0 -150 40 0 40 0 0 65 c0 36 3 65 8 65 4 0 27 -30 51 -65
l43 -65 50 0 50 0 -28 38 c-15 20 -43 57 -61 81 -37 49 -40 38 36 129 l43 52
-48 0 c-48 -1 -50 -2 -89 -55 -22 -30 -43 -54 -47 -55 -5 0 -8 25 -8 55 l0 55
-40 0 -40 0 0 -150z"/>
<path d="M2050 990 l0 -150 40 0 40 0 0 150 0 150 -40 0 -40 0 0 -150z"/>
<path d="M2160 990 l0 -150 40 0 40 0 0 65 c0 36 3 65 8 65 4 0 26 -30 50 -65
l42 -65 51 0 51 0 -27 38 c-16 20 -44 56 -63 80 -38 48 -41 36 37 130 l43 52
-48 0 c-44 0 -51 -3 -72 -34 -12 -18 -34 -43 -47 -56 l-25 -23 0 56 0 57 -40
0 -40 0 0 -150z"/>
<path d="M2460 990 l0 -150 40 0 40 0 0 150 0 150 -40 0 -40 0 0 -150z"/>
</g>
</svg>
