<?xml version="1.0" standalone="no"?>
<!DOCTYPE svg PUBLIC "-//W3C//DTD SVG 20010904//EN"
 "http://www.w3.org/TR/2001/REC-SVG-20010904/DTD/svg10.dtd">
<svg version="1.0" xmlns="http://www.w3.org/2000/svg"
 width="280.000000pt" height="198.000000pt" viewBox="0 0 280.000000 198.000000"
 preserveAspectRatio="xMidYMid meet">

<g transform="translate(0.000000,198.000000) scale(0.100000,-0.100000)"
fill="#000000" stroke="none">
<path d="M1467 1416 c-87 -50 -156 -96 -155 -102 2 -6 113 -200 247 -432 l245
-422 217 0 218 0 -103 177 c-56 98 -189 329 -296 513 -106 184 -198 340 -204
346 -8 8 -54 -13 -169 -80z"/>
<path d="M1093 1057 c-151 -86 -160 -93 -149 -113 6 -11 72 -125 146 -252
l134 -232 219 0 219 0 -20 33 c-11 17 -100 169 -197 337 -97 168 -179 308
-183 312 -4 4 -80 -34 -169 -85z"/>
<path d="M722 701 c-84 -49 -154 -93 -154 -97 0 -5 17 -39 38 -76 l39 -68 218
0 218 0 -25 43 c-126 218 -165 282 -172 283 -5 2 -78 -37 -162 -85z"/>
</g>
</svg>
