<?xml version="1.0" standalone="no"?>
<!DOCTYPE svg PUBLIC "-//W3C//DTD SVG 20010904//EN"
 "http://www.w3.org/TR/2001/REC-SVG-20010904/DTD/svg10.dtd">
<svg version="1.0" xmlns="http://www.w3.org/2000/svg"
 width="280.000000pt" height="198.000000pt" viewBox="0 0 280.000000 198.000000"
 preserveAspectRatio="xMidYMid meet">

<g transform="translate(0.000000,198.000000) scale(0.100000,-0.100000)"
fill="#000000" stroke="none">
<path d="M212 983 l3 -238 70 1 c97 1 135 10 187 44 127 84 135 272 17 373
-50 44 -97 57 -198 57 l-81 0 2 -237z m206 192 c144 -61 169 -252 45 -354 -40
-33 -117 -54 -180 -49 l-38 3 -3 208 -2 207 70 0 c41 0 86 -6 108 -15z"/>
<path d="M1040 985 c0 -150 4 -235 10 -235 6 0 10 45 10 115 l0 115 100 0 c81
0 100 3 100 15 0 11 -20 15 -97 17 l-98 3 -3 88 -3 87 111 0 c91 0 110 3 110
15 0 13 -20 15 -120 15 l-120 0 0 -235z"/>
<path d="M2100 1160 l0 -60 -30 0 c-20 0 -30 -5 -30 -15 0 -10 10 -15 29 -15
l30 0 3 -146 c3 -139 4 -147 27 -165 25 -20 71 -26 71 -9 0 6 -5 10 -10 10 -6
0 -22 11 -35 25 -24 23 -25 29 -25 155 l0 130 45 0 c33 0 45 4 45 15 0 11 -12
15 -45 15 l-45 0 0 60 c0 47 -3 60 -15 60 -12 0 -15 -13 -15 -60z"/>
<path d="M725 1091 c-48 -22 -69 -44 -90 -94 -33 -80 -11 -166 58 -221 31 -25
49 -31 100 -34 54 -3 67 0 103 24 45 29 79 77 68 95 -4 7 -18 -3 -36 -25 -38
-47 -76 -66 -130 -66 -51 0 -110 35 -133 80 -31 60 -32 60 155 60 170 0 170 0
170 23 -1 34 -35 103 -65 129 -55 48 -133 60 -200 29z m155 -33 c37 -25 65
-61 75 -95 l6 -23 -155 0 c-144 0 -156 1 -156 18 0 27 46 84 83 104 46 25 107
23 147 -4z"/>
<path d="M1405 1091 c-72 -33 -105 -86 -105 -166 0 -55 14 -92 48 -129 67 -71
196 -75 256 -7 26 29 36 26 36 -9 0 -17 5 -30 13 -30 16 0 15 352 -2 358 -7 2
-11 -12 -11 -39 l0 -43 -27 27 c-59 56 -138 71 -208 38z m164 -40 c121 -86 59
-281 -89 -281 -62 0 -108 31 -139 93 -27 55 -24 95 12 148 47 70 147 89 216
40z"/>
<path d="M1818 1100 c-105 -31 -158 -161 -108 -260 38 -75 117 -112 205 -96
43 8 125 79 125 107 0 27 -13 23 -39 -12 -93 -126 -281 -69 -281 87 0 54 27
101 75 129 74 44 154 27 206 -44 26 -35 39 -39 39 -13 0 10 -17 34 -37 54 -56
52 -117 69 -185 48z"/>
<path d="M2345 1099 c-47 -17 -104 -78 -116 -124 -49 -179 164 -310 305 -186
62 55 73 166 22 240 -44 64 -140 95 -211 70z m139 -42 c135 -77 78 -287 -78
-287 -61 0 -110 28 -136 81 -27 51 -26 108 3 150 52 78 135 100 211 56z"/>
</g>
</svg>
