<?xml version="1.0" standalone="no"?>
<!DOCTYPE svg PUBLIC "-//W3C//DTD SVG 20010904//EN"
 "http://www.w3.org/TR/2001/REC-SVG-20010904/DTD/svg10.dtd">
<svg version="1.0" xmlns="http://www.w3.org/2000/svg"
 width="280.000000pt" height="198.000000pt" viewBox="0 0 280.000000 198.000000"
 preserveAspectRatio="xMidYMid meet">

<g transform="translate(0.000000,198.000000) scale(0.100000,-0.100000)"
fill="#000000" stroke="none">
<path d="M367 1104 c-4 -4 -7 -49 -7 -101 0 -73 -3 -93 -14 -93 -8 0 -16 7
-20 15 -3 8 -17 15 -31 15 -18 0 -25 -5 -25 -20 0 -59 100 -83 140 -33 18 23
20 38 18 122 -3 94 -3 96 -28 99 -14 2 -29 0 -33 -4z"/>
<path d="M486 995 c-25 -63 -46 -120 -46 -125 0 -21 48 -10 64 15 13 20 25 25
56 25 34 0 42 -4 50 -25 7 -19 17 -25 40 -25 16 0 30 4 30 9 0 5 -20 60 -44
123 -42 106 -46 113 -74 116 -29 3 -30 1 -76 -113z m94 -27 c0 -13 -8 -18 -26
-18 -21 0 -25 3 -19 18 4 9 10 26 13 36 5 18 6 18 19 1 7 -11 13 -27 13 -37z"/>
<path d="M738 1094 c-54 -29 -77 -126 -42 -180 46 -70 158 -72 211 -4 27 33
18 35 -98 15 -25 -5 -39 -2 -48 8 -16 20 -17 67 -2 96 11 20 18 22 49 17 118
-21 126 -20 99 14 -38 49 -114 64 -169 34z"/>
<path d="M957 1103 c-4 -3 -7 -60 -7 -125 l0 -118 29 0 c29 0 30 2 33 52 l3
51 35 -51 c30 -45 40 -52 68 -52 17 0 32 4 32 8 0 5 -18 35 -41 67 l-40 57 27
39 c14 21 33 44 40 50 23 19 16 29 -19 29 -28 0 -38 -7 -68 -47 l-34 -48 -3
48 c-3 41 -6 47 -26 47 -12 0 -26 -3 -29 -7z"/>
<path d="M1232 1094 c-35 -24 -30 -75 13 -123 30 -33 33 -40 20 -51 -18 -15
-38 -3 -32 21 3 10 -4 25 -15 36 -21 19 -32 11 -44 -35 -16 -59 80 -108 127
-66 18 16 20 16 37 0 18 -15 20 -15 36 3 15 16 15 22 5 39 -10 16 -10 24 -1
35 9 11 8 18 -8 32 -16 15 -22 16 -35 5 -14 -11 -20 -9 -42 12 -29 29 -26 60
5 52 10 -3 24 2 31 10 32 38 -50 64 -97 30z"/>
<path d="M1518 1013 c-3 -84 -6 -98 -20 -101 -11 -2 -18 3 -18 12 0 11 -9 16
-30 16 -23 0 -30 -4 -30 -20 0 -33 35 -60 80 -60 68 0 80 21 80 145 l0 105
-30 0 -29 0 -3 -97z"/>
<path d="M1669 1095 c-14 -8 -34 -26 -43 -40 -20 -31 -23 -103 -6 -135 28 -53
120 -76 180 -45 79 41 79 179 0 220 -36 19 -97 19 -131 0z m112 -61 c20 -24
16 -84 -6 -100 -25 -19 -70 -18 -86 2 -7 9 -13 31 -13 49 0 44 19 65 59 65 18
0 39 -7 46 -16z"/>
<path d="M1890 985 l0 -125 30 0 c29 0 29 0 32 66 l3 66 49 -67 c41 -56 52
-66 75 -63 l26 3 0 120 0 120 -30 0 c-30 0 -30 0 -33 -63 l-3 -64 -50 66 c-38
50 -56 66 -74 66 l-25 0 0 -125z"/>
<path d="M2140 985 l0 -125 90 0 90 0 0 30 0 30 -60 0 c-53 0 -60 2 -60 20 0
17 7 20 40 20 36 0 40 3 40 24 0 21 -5 25 -37 28 -27 2 -39 8 -41 21 -3 15 5
17 57 17 l61 0 0 30 0 30 -90 0 -90 0 0 -125z"/>
<path d="M2366 1089 c-19 -15 -26 -30 -26 -53 0 -41 22 -62 79 -75 48 -10 67
-24 57 -40 -10 -16 -52 -13 -66 4 -7 8 -25 15 -41 15 -36 0 -38 -22 -4 -55 19
-20 34 -25 75 -25 61 0 100 31 100 78 0 42 -19 59 -80 75 -35 8 -55 19 -55 28
0 20 49 23 65 5 14 -18 70 -22 70 -5 0 6 -13 24 -29 40 -37 37 -104 41 -145 8z"/>
</g>
</svg>
