<svg width="172" height="56" viewBox="0 0 172 56" fill="none" xmlns="http://www.w3.org/2000/svg">
<path d="M39.7023 28.8401C39.7023 35.8606 33.9822 41.5601 26.916 41.5601C19.8498 41.5601 14.1298 35.8606 14.1298 28.8401C14.1298 21.8196 19.8498 16.1201 26.916 16.1201C33.9822 16.1201 39.7023 21.8196 39.7023 28.8401Z" stroke="#02021D" stroke-width="2"/>
<path d="M33.1374 28.8401C33.1374 35.8606 27.4173 41.5601 20.3511 41.5601C13.2849 41.5601 7.56488 35.8606 7.56488 28.8401C7.56488 21.8196 13.2849 16.1201 20.3511 16.1201C27.4173 16.1201 33.1374 21.8196 33.1374 28.8401Z" stroke="#02021D" stroke-width="2"/>
<path d="M27.5725 28.8401C27.5725 36.4175 21.4002 42.5601 13.7863 42.5601C6.17232 42.5601 0 36.4175 0 28.8401C0 21.2628 6.17232 15.1201 13.7863 15.1201C21.4002 15.1201 27.5725 21.2628 27.5725 28.8401Z" fill="#02021D"/>
<path d="M67.7131 41.4404C65.9728 41.4404 64.475 41.236 63.2196 40.827C61.9643 40.4181 60.8089 39.8889 59.7532 39.2394L57.7419 40.9714H56.458V33.394H57.7847C58.127 34.5727 58.6834 35.6793 59.4537 36.7136C60.2525 37.748 61.3224 38.5899 62.6633 39.2394C64.0042 39.8648 65.6447 40.1775 67.5848 40.1775C69.1824 40.1775 70.5091 39.961 71.5647 39.5281C72.6489 39.0951 73.462 38.5057 74.004 37.76C74.5746 36.9903 74.8599 36.1483 74.8599 35.2342C74.8599 34.2961 74.6032 33.5384 74.0896 32.961C73.5761 32.3837 72.9056 31.9387 72.0782 31.626C71.2794 31.2892 70.4092 31.0246 69.4677 30.8322C68.5548 30.6397 67.6846 30.4593 66.8572 30.2909C64.8601 29.858 63.1055 29.2927 61.5934 28.5951C60.0813 27.8734 58.8973 26.9473 58.0414 25.8167C57.2141 24.6861 56.8004 23.2789 56.8004 21.5951C56.8004 19.7428 57.2711 18.2153 58.2126 17.0126C59.1541 15.8098 60.3952 14.9198 61.9358 14.3425C63.4764 13.7411 65.1169 13.4404 66.8572 13.4404C68.1411 13.4404 69.2823 13.5968 70.2809 13.9095C71.3079 14.2222 72.3921 14.6793 73.5333 15.2806L75.2023 13.7652H76.5289V21.126H75.2451C74.4177 18.8408 73.305 17.205 71.9071 16.2188C70.5091 15.2085 68.7973 14.7033 66.7716 14.7033C65.5449 14.7033 64.4179 14.8717 63.3908 15.2085C62.3923 15.5212 61.5934 15.9782 60.9943 16.5796C60.3952 17.181 60.0956 17.8906 60.0956 18.7085C60.0956 19.4782 60.3524 20.1157 60.8659 20.6208C61.3795 21.1019 62.0499 21.4868 62.8773 21.7755C63.7047 22.0641 64.5891 22.3047 65.5306 22.4971C66.4721 22.6896 67.3708 22.87 68.2267 23.0384C70.395 23.4714 72.2209 24.0727 73.7045 24.8425C75.188 25.5882 76.315 26.5745 77.0853 27.8013C77.8556 29.0281 78.2408 30.5676 78.2408 32.4198C78.2408 35.2583 77.3278 37.4714 75.5019 39.059C73.7045 40.6466 71.1082 41.4404 67.7131 41.4404Z" fill="#02021D"/>
<path d="M96.9138 41.4404C94.6885 41.4404 92.6058 41.0556 90.6657 40.2858C88.7542 39.516 87.0709 38.4696 85.6159 37.1466C84.1894 35.8236 83.0625 34.3202 82.2351 32.6363C81.4362 30.9525 81.0368 29.1844 81.0368 27.3322C81.0368 25.4799 81.4362 23.7239 82.2351 22.0641C83.0625 20.3803 84.1894 18.9009 85.6159 17.626C87.0709 16.327 88.7542 15.3047 90.6657 14.559C92.6058 13.8133 94.6885 13.4404 96.9138 13.4404C99.1392 13.4404 101.222 13.8133 103.162 14.559C105.102 15.3047 106.785 16.327 108.212 17.626C109.667 18.9009 110.794 20.3803 111.593 22.0641C112.42 23.7239 112.834 25.4799 112.834 27.3322C112.834 29.1844 112.42 30.9525 111.593 32.6363C110.794 34.3202 109.667 35.8236 108.212 37.1466C106.785 38.4696 105.102 39.516 103.162 40.2858C101.222 41.0556 99.1392 41.4404 96.9138 41.4404ZM96.871 40.1775C98.3261 40.1775 99.5529 39.9971 100.551 39.6363C101.55 39.2514 102.349 38.5899 102.948 37.6518C103.576 36.7136 104.018 35.4147 104.275 33.7549C104.56 32.0951 104.703 29.9782 104.703 27.4043C104.703 24.8305 104.56 22.7257 104.275 21.0899C104.018 19.4301 103.576 18.1432 102.948 17.2291C102.349 16.2909 101.55 15.6415 100.551 15.2806C99.5529 14.8958 98.3261 14.7033 96.871 14.7033C95.4445 14.7033 94.232 14.8958 93.2334 15.2806C92.2634 15.6415 91.4788 16.2789 90.8797 17.193C90.2806 18.1071 89.8384 19.394 89.5531 21.0538C89.2963 22.6896 89.1679 24.7824 89.1679 27.3322C89.1679 29.9542 89.2963 32.1071 89.5531 33.7909C89.8384 35.4507 90.2806 36.7497 90.8797 37.6879C91.5074 38.6019 92.3062 39.2514 93.2762 39.6363C94.2748 39.9971 95.4731 40.1775 96.871 40.1775Z" fill="#02021D"/>
<path d="M125.982 28.6312V27.5487H129.534C131.103 27.5487 132.373 27.3803 133.343 27.0435C134.313 26.6827 135.026 26.0332 135.483 25.0951C135.939 24.1329 136.167 22.7497 136.167 20.9456C136.167 19.2377 135.982 17.9507 135.611 17.0848C135.24 16.2188 134.684 15.6294 133.942 15.3167C133.229 15.004 132.33 14.8476 131.246 14.8476H115.412V13.7652H133.386C135.44 13.7652 137.28 14.0779 138.906 14.7033C140.561 15.3287 141.873 16.1947 142.843 17.3013C143.813 18.3837 144.298 19.6346 144.298 21.0538C144.298 22.5452 143.699 23.8683 142.501 25.0229C141.331 26.1535 139.648 27.0435 137.451 27.693C135.254 28.3184 132.615 28.6312 129.534 28.6312H125.982ZM115.412 40.9714V39.8889H131.289V40.9714H115.412ZM119.477 40.4301V13.7652H126.239V40.4301H119.477Z" fill="#02021D"/>
<path d="M161.858 40.4301L154.026 22.3528H153.855L153.598 21.0177L156.508 13.4404H157.621L169.261 40.4301H161.858ZM140.118 40.9714V39.8889H150.56V40.9714H140.118ZM147.778 33.6105V32.5641H162.499V33.6105H147.778ZM157.15 40.9714V39.8889H172V40.9714H157.15ZM143.884 40.4301L156.508 13.4404H157.621L155.395 19.1775L145.296 40.4301H143.884Z" fill="#02021D"/>
</svg>
